# xmcd CD database file generated by Grip 3.3.1
# 
# Track frame offsets:
#       150
#       12580
#       22420
#       34140
#       48277
#       60405
#       71212
#       82075
#       94645
#       104630
#       118340
#       128925
#       139077
#       149212
#       160400
#       169742
#       180722
#       191212
#       206792
#       219547
# 
# Disc length: 3073 seconds
# 
# Revision: 2
# Processed by: cddbd v1.5.1PL0 Copyright (c) Steve Scherf et al.
# Submitted via: Grip 3.3.1
# 
DISCID=460bff14
DTITLE=Patsy Cline - The best of Patsy Cline
DYEAR=1994
DGENRE=Country
TTITLE0=Crazy
TTITLE1=Heartaches
TTITLE2=Sweet dreams
TTITLE3=She's got you
TTITLE4=He called me baby
TTITLE5=Love letters in the sand
TTITLE6=Crazy arms
TTITLE7=Bill Bailey won't you please come home
TTITLE8=Have you ever been lonely
TTITLE9=That's my desire
TTITLE10=Your cheatin' heart
TTITLE11=That's how a heartache begins
TTITLE12=I love you so much it hurts
TTITLE13=Half as much
TTITLE14=Back in baby's arms
TTITLE15=South of the border
TTITLE16=San Antonio rose
TTITLE17=Why can't he be you
TTITLE18=I fall to pieces
TTITLE19=Leavin' on your mind
EXTD=
EXTT0=
EXTT1=
EXTT2=
EXTT3=
EXTT4=
EXTT5=
EXTT6=
EXTT7=
EXTT8=
EXTT9=
EXTT10=
EXTT11=
EXTT12=
EXTT13=
EXTT14=
EXTT15=
EXTT16=
EXTT17=
EXTT18=
EXTT19=
PLAYORDER=
